# xmcd
#
# Track frame offsets:
#   150
#   15550
#   30270
#   48323
#   62849
#   74681
#   89215
#   100230
#   117283
#   130559
#   157038
#   169186
#   184339
#   199237
#   216134
#   228411
#   242147
#   255983
#   270913
#
# Disc length: 3785 seconds
#
# Revision: 0
# Processed by: cddbd v1.4PL0 Copyright (c) Steve Scherf et al.
# Submitted via: uFREEDB 1.6.0
#
DISCID=0b0ec713
DTITLE=Varios Artistas - Musica LLanera en Vivo
DYEAR=2000
DGENRE=Alternative
TTITLE0=llano1
TTITLE1=llano2
TTITLE2=llano3
TTITLE3=llano4
TTITLE4=llano5
TTITLE5=llano6
TTITLE6=llano7
TTITLE7=llano8
TTITLE8=llano9
TTITLE9=llano10
TTITLE10=llano11
TTITLE11=llamo12
TTITLE12=llano13
TTITLE13=llano14
TTITLE14=llano15
TTITLE15=llano16
TTITLE16=llano17
TTITLE17=llano18
TTITLE18=llano19
EXTD=
EXTT0=
EXTT1=
EXTT2=
EXTT3=
EXTT4=
EXTT5=
EXTT6=
EXTT7=
EXTT8=
EXTT9=
EXTT10=
EXTT11=
EXTT12=
EXTT13=
EXTT14=
EXTT15=
EXTT16=
EXTT17=
EXTT18=
PLAYORDER=
